<svg id="visual" viewBox="0 0 900 675" width="900" height="675" xmlns="http://www.w3.org/2000/svg" xmlns:xlink="http://www.w3.org/1999/xlink" version="1.1"><path d="M0 197L53 129L106 312L159 190L212 190L265 197L318 264L371 264L424 298L476 224L529 278L582 271L635 150L688 190L741 325L794 190L847 237L900 163L900 0L847 0L794 0L741 0L688 0L635 0L582 0L529 0L476 0L424 0L371 0L318 0L265 0L212 0L159 0L106 0L53 0L0 0Z" fill="#ccb900"></path><path d="M0 258L53 271L106 406L159 264L212 345L265 325L318 318L371 379L424 406L476 386L529 399L582 339L635 210L688 352L741 473L794 352L847 379L900 305L900 161L847 235L794 188L741 323L688 188L635 148L582 269L529 276L476 222L424 296L371 262L318 262L265 195L212 188L159 188L106 310L53 127L0 195Z" fill="#7caf3c"></path><path d="M0 447L53 426L106 561L159 406L212 413L265 514L318 501L371 447L424 568L476 548L529 575L582 480L635 420L688 534L741 555L794 453L847 501L900 420L900 303L847 377L794 350L741 471L688 350L635 208L582 337L529 397L476 384L424 404L371 377L318 316L265 323L212 343L159 262L106 404L53 269L0 256Z" fill="#389c60"></path><path d="M0 676L53 676L106 676L159 676L212 676L265 676L318 676L371 676L424 676L476 676L529 676L582 676L635 676L688 676L741 676L794 676L847 676L900 676L900 418L847 499L794 451L741 553L688 532L635 418L582 478L529 573L476 546L424 566L371 445L318 499L265 512L212 411L159 404L106 559L53 424L0 445Z" fill="#038373"></path></svg>